<?xml version="1.0"?><svg width="412" height="523" xmlns="http://www.w3.org/2000/svg">
 <g>
  <title>Layer 1</title>
  <g id="svg_1" transform="matrix(-1 0 0 1 412 0)">
   <path fill="#9cbf47" id="svg_2" d="m257.873993,274.394012c79.166016,-8.333008 65.869019,-131.132019 2.083008,-164.583015c-42.259003,-22.161995 -99.311005,-21.194 -137.5,-6.25c-72.437,28.345009 -91.666,64.583 -102.083,135.417c-10.417001,70.834015 24.486,258.20401 108.333,279.165985c75,18.75 103.944,-17.606995 95.832993,-52.082977c-8.332993,-35.416992 -49.40799,-81.295013 -52.082993,-112.5c-6.25,-72.916992 85.416992,-79.166992 85.416992,-79.166992z"/>
   <path fill="#9cbf47" id="svg_3" d="m398.934998,101.503998c-21.207001,30.800003 -61.445984,39.899002 -89.876007,20.324005c-28.431,-19.575005 -34.286987,-60.412003 -13.079987,-91.212004c21.207001,-30.799999 61.445007,-39.897999 89.876007,-20.322999c28.428986,19.575 34.28598,60.412002 13.079987,91.210998z"/>
   <path fill="#9cbf47" id="svg_4" d="m235.453995,82.105003c-18.149002,3.089996 -35.287994,-8.655006 -38.281998,-26.236004c-2.994995,-17.581001 8.591003,-44.006 26.738998,-47.096c18.14801,-3.092 35.28801,8.655 38.281998,26.235999c2.994019,17.581001 -8.591995,44.005001 -26.738998,47.096004z"/>
   <path fill="#9cbf47" id="svg_5" d="m176.598999,69.410004c-10.276001,14.575996 -25.334,17.380997 -40.380005,6.773994c-15.045998,-10.606995 -18.584991,-40.857998 -8.30899,-55.434998c10.276001,-14.575001 25.332993,-17.380001 40.37999,-6.773001c15.046005,10.607 18.585007,40.858 8.309006,55.434004z"/>
   <path fill="#9cbf47" id="svg_6" d="m113.750999,80.360001c-3.156998,15.209 -18.958,24.790001 -35.293999,21.399002c-16.336002,-3.391006 -29.616001,-26.455002 -26.459,-41.664001c3.156998,-15.209 18.958,-24.790001 35.292999,-21.399002c16.334999,3.391003 29.616997,26.455002 26.459999,41.664001z"/>
   <path fill="#9cbf47" id="svg_7" d="m47.389,102.138c9.291,13.857002 7.525002,31.324005 -3.943001,39.013c-11.467999,7.688004 -28.296,2.688004 -37.586999,-11.169998c-9.29,-13.857002 -7.524,-31.324005 3.944,-39.012001c11.467999,-7.688004 28.295999,-2.688004 37.585999,11.168999z"/>
  </g>
 </g>
</svg>